<?xml version="1.0" encoding="UTF-8"?>
<!DOCTYPE svg PUBLIC "-//W3C//DTD SVG 1.1//EN" "http://www.w3.org/Graphics/SVG/1.1/DTD/svg11.dtd">
<!-- Creator: CorelDRAW -->
<svg xmlns="http://www.w3.org/2000/svg" xml:space="preserve" width="22.442mm" height="22.4421mm" version="1.1" style="shape-rendering:geometricPrecision; text-rendering:geometricPrecision; image-rendering:optimizeQuality; fill-rule:evenodd; clip-rule:evenodd"
viewBox="0 0 2309.68 2309.69"
 xmlns:xlink="http://www.w3.org/1999/xlink"
 xmlns:xodm="http://www.corel.com/coreldraw/odm/2003">
 <defs>
  <style type="text/css">
   <![CDATA[
    .fil0 {fill:#000066}
    .fil1 {fill:url(#id0)}
    .fil2 {fill:url(#id1)}
   ]]>
  </style>
  <linearGradient id="id0" gradientUnits="userSpaceOnUse" x1="1991.41" y1="1862.5" x2="1505.85" y2="-158.14">
   <stop offset="0" style="stop-opacity:1; stop-color:#E6E6E6"/>
   <stop offset="0.501961" style="stop-opacity:1; stop-color:#000066"/>
   <stop offset="1" style="stop-opacity:1; stop-color:red"/>
  </linearGradient>
  <linearGradient id="id1" gradientUnits="userSpaceOnUse" x1="591.07" y1="649.67" x2="1078.4" y2="3043.51">
   <stop offset="0" style="stop-opacity:1; stop-color:red"/>
   <stop offset="0.501961" style="stop-opacity:1; stop-color:#000066"/>
   <stop offset="1" style="stop-opacity:1; stop-color:#E6E6E6"/>
  </linearGradient>
 </defs>
 <g id="Layer_x0020_1">
  <metadata id="CorelCorpID_0Corel-Layer"/>
  <g id="_1911311575344">
   <path class="fil0" d="M1974.54 720.29c68.87,129.63 107.95,277.52 107.95,434.56 0,512.31 -415.32,927.64 -927.65,927.64 -238.93,0 -456.75,-90.35 -621.2,-238.73l-305.68 0c210.5,282.74 547.27,465.93 926.88,465.93 637.8,0 1154.84,-517.05 1154.84,-1154.84 0,-236.23 -70.98,-455.84 -192.7,-638.79l-142.44 204.23z"/>
   <path class="fil0" d="M227.19 1154.85c0,-512.32 415.32,-927.65 927.65,-927.65 206.21,0 396.66,67.3 550.69,181.1l330.32 0c-211.85,-249.74 -527.87,-408.3 -881.02,-408.3 -637.79,0 -1154.84,517.05 -1154.84,1154.85 0,233.17 69.13,450.19 187.98,631.72l142.99 -205.02c-66.3,-127.74 -103.78,-272.83 -103.78,-426.7z"/>
   <polygon class="fil1" points="1280.72,1788.53 253.94,1788.53 506.12,1426.95 1077.88,1426.95 1379.2,1008.05 1846.99,1008.05 "/>
   <polygon class="fil2" points="1059.51,463.52 2086.28,463.52 1834.1,825.1 1262.35,825.1 961.02,1244.01 493.23,1244.01 "/>
  </g>
 </g>
</svg>
