<?xml version="1.0" encoding="UTF-8"?>
<!DOCTYPE svg PUBLIC "-//W3C//DTD SVG 1.1//EN" "http://www.w3.org/Graphics/SVG/1.1/DTD/svg11.dtd">
<!-- Creator: CorelDRAW -->
<svg xmlns="http://www.w3.org/2000/svg" xml:space="preserve" width="82.2076mm" height="22.4421mm" version="1.1" style="shape-rendering:geometricPrecision; text-rendering:geometricPrecision; image-rendering:optimizeQuality; fill-rule:evenodd; clip-rule:evenodd"
viewBox="0 0 30992.16 8460.64"
 xmlns:xlink="http://www.w3.org/1999/xlink"
 xmlns:xodm="http://www.corel.com/coreldraw/odm/2003">
 <defs>
  <style type="text/css">
   <![CDATA[
    .fil4 {fill:#000066}
    .fil0 {fill:#000066;fill-rule:nonzero}
    .fil1 {fill:#000066;fill-rule:nonzero}
    .fil3 {fill:#E12B2D;fill-rule:nonzero}
    .fil2 {fill:red;fill-rule:nonzero}
    .fil5 {fill:url(#id0)}
    .fil6 {fill:url(#id1)}
   ]]>
  </style>
  <linearGradient id="id0" gradientUnits="userSpaceOnUse" x1="7294.78" y1="6822.55" x2="5516.1" y2="-579.3">
   <stop offset="0" style="stop-opacity:1; stop-color:#E6E6E6"/>
   <stop offset="0.501961" style="stop-opacity:1; stop-color:#000066"/>
   <stop offset="1" style="stop-opacity:1; stop-color:red"/>
  </linearGradient>
  <linearGradient id="id1" gradientUnits="userSpaceOnUse" x1="2165.14" y1="2379.8" x2="3950.31" y2="11148.72">
   <stop offset="0" style="stop-opacity:1; stop-color:red"/>
   <stop offset="0.501961" style="stop-opacity:1; stop-color:#000066"/>
   <stop offset="1" style="stop-opacity:1; stop-color:#E6E6E6"/>
  </linearGradient>
 </defs>
 <g id="Layer_x0020_1">
  <metadata id="CorelCorpID_0Corel-Layer"/>
  <g id="_1914771229568">
   <path class="fil0" d="M11273.36 6407.02c-433.93,0 -799.01,-97 -1095.29,-291.04 -296.25,-193.97 -504.84,-457.87 -625.86,-791.66l738.54 -431.85c171.04,446.48 506.91,669.63 1007.57,669.63 242.03,0 419.37,-43.73 532.02,-131.42 112.65,-87.58 168.97,-198.19 168.97,-331.68 0,-154.42 -68.8,-274.3 -206.52,-359.81 -137.72,-85.62 -383.86,-178.4 -738.54,-278.56 -196.04,-58.36 -361.92,-116.83 -497.56,-175.23 -135.57,-58.4 -271.21,-136.62 -406.78,-234.72 -135.57,-98.02 -238.83,-222.13 -309.78,-372.32 -70.95,-150.2 -106.39,-325.46 -106.39,-525.8 0,-396.34 140.85,-712.34 422.46,-948.15 281.62,-235.74 620.62,-353.55 1016.99,-353.55 354.64,0 666.53,86.56 935.67,259.68 269.06,173.19 478.79,414.17 628.98,722.86l-726.06 419.34c-175.19,-375.49 -454.74,-563.27 -838.6,-563.27 -179.41,0 -320.22,40.68 -422.46,122.03 -102.2,81.39 -153.29,186.73 -153.29,316.11 0,137.68 57.34,249.23 172.06,334.85 114.72,85.5 334.85,178.36 660.28,278.45 133.57,41.77 234.68,74.04 303.56,97.04 68.84,22.92 162.71,58.4 281.66,106.39 118.87,47.95 210.67,92.82 275.32,134.51 64.69,41.77 138.77,98.1 222.2,169.01 83.47,70.95 147.1,143.98 190.87,219.07 43.84,75.1 81.39,165.8 112.65,272.27 31.37,106.35 46.94,222.13 46.94,347.33 0,404.71 -147.03,725.95 -441.2,963.76 -294.13,237.89 -676.98,356.75 -1148.41,356.75zm3170.48 0c-433.93,0 -799.01,-97 -1095.29,-291.04 -296.25,-193.97 -504.84,-457.87 -625.86,-791.66l738.54 -431.85c171.04,446.48 506.91,669.63 1007.57,669.63 242.03,0 419.37,-43.73 532.02,-131.42 112.65,-87.58 168.97,-198.19 168.97,-331.68 0,-154.42 -68.8,-274.3 -206.52,-359.81 -137.72,-85.62 -383.86,-178.4 -738.54,-278.56 -196.04,-58.36 -361.92,-116.83 -497.56,-175.23 -135.57,-58.4 -271.21,-136.62 -406.78,-234.72 -135.57,-98.02 -238.83,-222.13 -309.78,-372.32 -70.95,-150.2 -106.39,-325.46 -106.39,-525.8 0,-396.34 140.85,-712.34 422.46,-948.15 281.62,-235.74 620.62,-353.55 1016.99,-353.55 354.64,0 666.53,86.56 935.67,259.68 269.06,173.19 478.75,414.17 628.98,722.86l-726.06 419.34c-175.19,-375.49 -454.74,-563.27 -838.6,-563.27 -179.41,0 -320.22,40.68 -422.46,122.03 -102.24,81.39 -153.29,186.73 -153.29,316.11 0,137.68 57.34,249.23 172.06,334.85 114.72,85.5 334.85,178.36 660.24,278.45 133.61,41.77 234.72,74.04 303.6,97.04 68.84,22.92 162.71,58.4 281.66,106.39 118.83,47.95 210.67,92.82 275.32,134.51 64.69,41.77 138.77,98.1 222.2,169.01 83.47,70.95 147.1,143.98 190.87,219.07 43.84,75.1 81.39,165.8 112.65,272.27 31.33,106.35 46.94,222.13 46.94,347.33 0,404.71 -147.03,725.95 -441.2,963.76 -294.13,237.89 -676.98,356.75 -1148.41,356.75z"/>
   <path class="fil1" d="M17778.51 6096.07c-270.57,0 -494.06,-89.91 -670.42,-269.7 -176.4,-179.83 -264.62,-401.58 -264.62,-665.33 0,-265.44 88.22,-487.61 264.62,-666.57 176.36,-179 399.84,-268.46 670.42,-268.46 162.71,0 312.95,38.11 450.85,114.31 137.83,76.23 245.28,179.41 322.33,309.55l-305.67 177.23c-44.52,-80.49 -107.9,-143.41 -190.08,-188.8 -82.19,-45.39 -174.7,-68.05 -277.43,-68.05 -174.66,0 -315.55,54.78 -422.54,164.41 -107.03,109.59 -160.56,251.72 -160.56,426.39 0,172.97 53.53,314.27 160.56,423.86 106.99,109.59 247.88,164.41 422.54,164.41 102.73,0 195.66,-22.73 278.72,-68.09 83.05,-45.39 145.97,-107.44 188.8,-186.24l305.67 177.26c-77.06,130.14 -184.05,233.32 -321.09,309.52 -136.96,76.23 -287.69,114.31 -452.1,114.31zm2078.13 -196.53c-131.87,131.01 -292.85,196.53 -482.94,196.53 -190.08,0 -350.65,-65.52 -481.65,-196.53 -130.97,-130.97 -196.49,-291.53 -196.49,-481.62 0,-190.08 65.52,-350.65 196.49,-481.65 131.01,-131.01 291.57,-196.49 481.65,-196.49 190.08,0 351.06,65.48 482.94,196.49 131.84,131.01 197.77,291.57 197.77,481.65 0,190.08 -65.94,350.65 -197.77,481.62zm-730.81 -227.29c65.94,66.77 148.58,100.17 247.88,100.17 99.3,0 182.39,-33.4 249.16,-100.17 66.8,-66.8 100.17,-151.55 100.17,-254.32 0,-102.73 -33.36,-187.52 -100.17,-254.29 -66.77,-66.8 -149.86,-100.21 -249.16,-100.21 -99.3,0 -181.94,33.4 -247.88,100.21 -65.94,66.77 -98.89,151.55 -98.89,254.29 0,102.77 32.95,187.52 98.89,254.32zm1876.47 -932.47c140.43,0 256.43,47.09 348.05,141.26 91.65,94.21 137.42,224.35 137.42,390.46l0 788.61 -331.34 0 0 -747.51c0,-85.62 -23.11,-151.1 -69.37,-196.49 -46.22,-45.39 -107.9,-68.09 -184.96,-68.09 -85.58,0 -154.12,26.54 -205.46,79.62 -51.38,53.08 -77.06,132.7 -77.06,238.94l0 693.53 -331.38 0 0 -1284.36 331.38 0 0 143.83c80.45,-119.89 208.03,-179.79 382.73,-179.79zm1502.72 354.49l-290.29 0 0 534.28c0,44.52 11.16,77.06 33.4,97.6 22.24,20.58 54.82,32.12 97.6,34.68 42.83,2.56 95.91,2.15 159.28,-1.28l0 300.54c-227.74,25.67 -388.31,4.26 -481.65,-64.2 -93.34,-68.5 -139.98,-190.95 -139.98,-367.35l0 -534.28 -223.48 0 0 -318.53 223.48 0 0 -259.45 331.34 -100.17 0 359.62 290.29 0 0 318.53zm585.67 -97.6c30.8,-82.22 81.77,-143.86 152.84,-184.96 71.03,-41.13 150.27,-61.68 237.58,-61.68l0 369.91c-101.04,-11.99 -191.36,8.56 -270.99,61.64 -79.62,53.08 -119.43,141.3 -119.43,264.62l0 613.9 -331.38 0 0 -1284.36 331.38 0 0 220.92zm1510.41 -220.92l331.38 0 0 1284.36 -331.38 0 0 -151.55c-99.3,125.01 -238.9,187.52 -418.69,187.52 -171.27,0 -318.11,-65.52 -440.56,-196.53 -122.45,-130.97 -183.67,-291.53 -183.67,-481.62 0,-190.08 61.22,-350.65 183.67,-481.65 122.45,-131.01 269.29,-196.49 440.56,-196.49 179.79,0 319.39,62.51 418.69,187.52l0 -151.55zm-611.34 902.91c66.77,67.63 151.55,101.45 254.29,101.45 102.77,0 187.97,-33.82 255.57,-101.45 67.67,-67.63 101.49,-154.57 101.49,-260.73 0,-106.2 -33.82,-193.1 -101.49,-260.73 -67.6,-67.63 -152.8,-101.49 -255.57,-101.49 -102.73,0 -187.52,33.85 -254.29,101.49 -66.8,67.63 -100.17,154.53 -100.17,260.73 0,106.16 33.36,193.1 100.17,260.73zm1854.61 417.41c-193.51,0 -354.87,-65.07 -484.22,-195.21 -129.27,-130.14 -193.93,-291.16 -193.93,-482.94 0,-191.82 64.66,-352.76 193.93,-482.94 129.35,-130.14 290.7,-195.21 484.22,-195.21 125.01,0 238.94,29.97 341.67,89.88 102.73,59.98 180.66,140.43 233.74,241.51l-285.12 166.97c-25.67,-53.12 -64.62,-95.04 -116.87,-125.88 -52.25,-30.84 -110.88,-46.26 -175.98,-46.26 -99.3,0 -181.49,32.99 -246.59,98.89 -65.07,65.97 -97.6,150.31 -97.6,253.04 0,101.04 32.53,184.5 97.6,250.44 65.11,65.94 147.29,98.92 246.59,98.92 66.8,0 126.33,-15 178.55,-44.98 52.25,-29.97 91.2,-71.48 116.87,-124.56l287.69 164.37c-56.47,101.04 -136.13,181.98 -238.87,242.75 -102.73,60.81 -216.66,91.2 -341.67,91.2zm1489.9 -1001.8l-290.25 0 0 534.28c0,44.52 11.12,77.06 33.4,97.6 22.24,20.58 54.78,32.12 97.6,34.68 42.83,2.56 95.91,2.15 159.24,-1.28l0 300.54c-227.74,25.67 -388.31,4.26 -481.62,-64.2 -93.34,-68.5 -140.02,-190.95 -140.02,-367.35l0 -534.28 -223.45 0 0 -318.53 223.45 0 0 -259.45 331.38 -100.17 0 359.62 290.25 0 0 318.53zm398.15 -472.68c-54.78,0 -102.32,-20.09 -142.54,-60.36 -40.26,-40.23 -60.36,-87.77 -60.36,-142.54 0,-54.82 20.09,-102.77 60.36,-143.86 40.23,-41.09 87.77,-61.64 142.54,-61.64 56.51,0 104.92,20.55 145.14,61.64 40.26,41.09 60.36,89.05 60.36,143.86 0,54.78 -20.09,102.32 -60.36,142.54 -40.23,40.26 -88.63,60.36 -145.14,60.36zm-164.41 1438.51l0 -1284.36 331.42 0 0 1284.36 -331.42 0zm1348.64 -1320.33c140.43,0 256.43,47.09 348.05,141.26 91.65,94.21 137.42,224.35 137.42,390.46l0 788.61 -331.34 0 0 -747.51c0,-85.62 -23.11,-151.1 -69.37,-196.49 -46.26,-45.39 -107.9,-68.09 -184.96,-68.09 -85.58,0 -154.12,26.54 -205.46,79.62 -51.38,53.08 -77.06,132.7 -77.06,238.94l0 693.53 -331.38 0 0 -1284.36 331.38 0 0 143.83c80.45,-119.89 208.03,-179.79 382.73,-179.79zm1751.84 35.97l323.69 0 0 1222.72c0,198.68 -65.52,350.23 -196.49,454.66 -131.01,104.47 -289.01,156.68 -473.93,156.68 -138.74,0 -260.73,-26.54 -366.07,-79.62 -105.33,-53.08 -186.24,-130.97 -242.75,-233.74l282.56 -161.85c65.07,119.89 177.26,179.79 336.51,179.79 104.47,0 186.65,-27.37 246.59,-82.19 59.94,-54.78 89.88,-132.7 89.88,-233.74l0 -138.74c-97.57,130.14 -234.57,195.25 -410.97,195.25 -181.52,0 -333.53,-63.79 -455.94,-191.36 -122.45,-127.58 -183.67,-283.01 -183.67,-466.23 0,-181.52 61.64,-336.51 184.96,-464.95 123.28,-128.44 274.83,-192.65 454.66,-192.65 176.4,0 313.4,65.07 410.97,195.21l0 -159.24zm-617.75 874.64c67.63,65.94 153.7,98.92 258.17,98.92 104.43,0 190.5,-32.99 258.17,-98.92 67.63,-65.9 101.41,-150.27 101.41,-253 0,-101.04 -33.78,-184.54 -101.41,-250.48 -67.67,-65.9 -153.74,-98.89 -258.17,-98.89 -104.47,0 -190.54,32.99 -258.17,98.89 -67.63,65.94 -101.45,149.44 -101.45,250.48 0,102.73 33.82,187.1 101.45,253z"/>
   <path class="fil2" d="M18168.25 3291.69l263.26 0 0 353.89 -298.32 0c-181.37,0 -321.73,-60.43 -421.11,-181.34 -83.84,64.39 -186.24,96.55 -307.07,96.55 -179.41,0 -322.71,-67.29 -429.97,-201.77 -87.73,-111.14 -131.61,-244.71 -131.61,-400.71 0,-193.02 62.39,-349.97 187.18,-470.83 105.3,-101.41 227.14,-152.04 365.58,-152.04 72.16,0 138.4,13.61 198.83,40.9l0 -76.04 365.61 -193.02 0 973.9c0,76 16.06,130.1 48.22,162.26 32.23,32.23 85.35,48.26 159.4,48.26zm-573.23 -546.87c-50.63,-42.86 -108.2,-64.32 -172.51,-64.32 -64.32,0 -116.49,26.31 -156.49,78.98 -39.92,52.63 -59.94,121.81 -59.94,207.58 0,85.84 19.53,154.08 58.47,204.79 39.06,50.71 92.67,76.04 160.87,76.04 74.12,0 131.61,-25.33 172.59,-76.04 -2,-15.65 -2.98,-40.04 -2.98,-73.14l0 -353.89zm1702.19 546.87l263.18 0 0 353.89 -298.32 0c-142.32,0 -260.28,-37.96 -353.89,-114.04 -93.57,76.08 -211.5,114.04 -353.81,114.04l-298.32 0 0 -353.89 263.18 0c74.08,0 126.75,-16.02 157.92,-48.26 31.18,-32.16 46.82,-86.26 46.82,-162.26l0 -541.07 368.48 -193.02 0 734.09c0,76 15.61,130.1 46.79,162.26 31.22,32.23 83.84,48.26 157.96,48.26zm1093.71 0l263.26 0 0 353.89 -298.32 0c-152.12,0 -275.89,-42.9 -371.38,-128.71 -107.26,85.8 -238.87,128.71 -394.87,128.71l-204.67 0 0 -353.89 184.2 0c89.73,0 153.63,-19.57 191.55,-58.47 38,-38.87 57.08,-105.3 57.08,-198.83l0 -815.64 365.58 -138.92 0 270.2 2.9 -2.94 0 734.09c0,76 15.57,130.1 46.82,162.26 31.18,32.23 83.84,48.26 157.85,48.26zm1073.39 -2.9c93.57,-284.63 230.04,-515.7 409.38,-693.11 198.94,-198.83 427.03,-298.32 684.37,-298.32 230.12,0 414.32,79.96 552.72,239.85 116.98,134.55 175.53,301.22 175.53,500.09l0 64.32c0,177.45 -55.57,315.89 -166.71,415.26 -95.57,85.8 -219.34,128.71 -371.46,128.71l-1263.4 0c-142.32,0 -260.24,-37.96 -353.89,-114.04 -93.57,76.08 -211.5,114.04 -353.81,114.04l-298.32 0 0 -353.89 263.18 0c74.12,0 126.75,-16.02 157.92,-48.26 31.22,-32.16 46.82,-86.26 46.82,-162.26l0 -386.05 368.48 -192.99 0 579.03c0,124.75 49.73,194 149.18,207.61zm1453.44 -210.59l0 -40.9c0,-116.98 -33.1,-212.55 -99.38,-286.59 -66.31,-74.08 -152.12,-111.1 -257.41,-111.1 -152.04,0 -293.87,58.47 -425.48,175.42 -131.61,116.98 -235.47,275.89 -311.44,476.68l909.55 0c70.12,0 118.42,-15.04 144.73,-45.28 26.31,-30.27 39.43,-86.33 39.43,-168.22zm1435.88 567.38l184.28 -353.89 462.05 0c99.45,0 149.18,-57.49 149.18,-172.51 0,-216.43 -103.34,-382.16 -309.97,-497.19l181.26 -309.97c331.46,194.98 497.19,465.97 497.19,813 0,347.07 -150.12,520.56 -450.36,520.56l-713.62 0zm1845.41 0c-177.38,0 -314.98,-56.51 -412.36,-169.61 -83.84,-97.38 -125.73,-223.22 -125.73,-377.26l0 -879.95 368.48 -138.92 0 1001.35c0,76 15.57,130.1 46.82,162.26 31.18,32.23 83.84,48.26 157.85,48.26l263.26 0 0 353.89 -298.32 0zm3105.9 -353.89l263.22 0 0 353.89 -298.32 0c-142.32,0 -260.32,-37.96 -353.85,-114.04 -93.57,76.08 -211.57,114.04 -353.89,114.04l-1263.44 0c-142.32,0 -260.24,-37.96 -353.89,-114.04 -93.53,76.08 -211.5,114.04 -353.81,114.04l-298.28 0 0 -353.89 263.15 0c74.12,0 126.78,-16.02 157.96,-48.26 31.18,-32.16 46.82,-86.26 46.82,-162.26l0 -386.05 368.44 -192.99 0 579.03c0,124.75 49.73,194 149.22,207.61 93.53,-284.63 230.01,-515.7 409.35,-693.11 198.94,-198.83 427.03,-298.32 684.37,-298.32 230.12,0 414.32,79.96 552.76,239.85 116.95,134.55 175.49,301.22 175.49,500.09l0 61.41c0,128.67 68.24,192.99 204.71,192.99zm-757.43 0c70.16,0 118.42,-15.04 144.73,-45.28 26.35,-30.27 39.47,-86.33 39.47,-168.22l0 -40.9c0,-116.98 -33.14,-212.55 -99.41,-286.59 -66.31,-74.08 -152.08,-111.1 -257.38,-111.1 -152.04,0 -293.87,58.47 -425.52,175.42 -131.61,116.98 -235.44,275.89 -311.44,476.68l909.55 0zm1313.09 -453.27c0,-175.49 54.59,-312.95 163.77,-412.36 95.49,-85.77 218.36,-128.71 368.48,-128.71 192.99,0 343.18,71.22 450.33,213.53 91.69,118.91 137.45,271.97 137.45,459.18 0,216.32 -57.49,386.99 -172.51,511.74 -103.34,109.18 -234.91,163.77 -394.79,163.77 -156,0 -283.65,-34.08 -383.11,-102.36 -93.57,68.27 -206.71,102.36 -339.22,102.36l-298.32 0 0 -353.89 263.15 0c74.12,0 126.78,-16.02 157.96,-48.26 31.18,-32.16 46.82,-86.26 46.82,-162.26l0 -242.75zm368.44 289.5c0,109.18 57.53,163.77 172.55,163.77 144.32,0 216.4,-111.1 216.4,-333.38 0,-212.51 -74.99,-318.71 -225.14,-318.71 -109.22,0 -163.81,64.32 -163.81,193.02l0 295.3zm-5963.1 336.32c0,226.2 -62.47,409.46 -187.22,549.82 -115.02,130.63 -267.1,195.93 -456.24,195.93 -122.79,0 -242.67,-31.18 -359.73,-93.53l0 -321.73c101.41,56.55 200.9,84.79 298.32,84.79 107.26,0 190.61,-34.57 250.06,-103.75 59.45,-69.25 89.16,-165.24 89.16,-288.1l0 -944.61 365.65 -195.96 0 1117.16z"/>
   <path class="fil3" d="M17316.87 2076.02c-34.12,0 -61.41,-10.25 -81.88,-30.73 -20.47,-20.43 -30.73,-48.33 -30.73,-83.58 0,-73.93 37.51,-110.88 112.61,-110.88 34.12,0 61.15,9.95 81.02,29.86 19.91,19.87 29.86,46.9 29.86,81.02 0,76.23 -36.95,114.31 -110.88,114.31zm262.69 0c-34.12,0 -61.41,-10.25 -81.88,-30.73 -20.47,-20.43 -30.69,-48.33 -30.69,-83.58 0,-73.93 37.55,-110.88 112.57,-110.88 34.12,0 61.15,9.95 81.05,29.86 19.91,19.87 29.86,46.9 29.86,81.02 0,76.23 -36.95,114.31 -110.91,114.31z"/>
   <path class="fil2" d="M18876.71 3916.34c44.49,0 79.74,12.93 105.67,38.94 25.94,25.94 38.94,61.11 38.94,105.67 0,99.3 -48.18,149.03 -144.62,149.03 -44.49,0 -80.07,-13.35 -106.77,-40.04 -26.69,-26.73 -40.04,-63.03 -40.04,-108.99 0,-43.09 13.35,-77.89 40.04,-104.58 26.69,-26.73 62.28,-40.04 106.77,-40.04z"/>
  </g>
  <g id="_1914771228368">
   <path class="fil4" d="M7232.95 2638.5c252.29,474.87 395.43,1016.58 395.43,1591.84 0,1876.66 -1521.38,3398.04 -3398.08,3398.04 -875.24,0 -1673.12,-330.97 -2275.53,-874.49l-1119.72 0c771.08,1035.69 2004.73,1706.75 3395.25,1706.75 2336.34,0 4230.3,-1894 4230.3,-4230.3 0,-865.33 -260.02,-1669.8 -705.89,-2339.96l-521.77 748.12z"/>
   <path class="fil4" d="M832.22 4230.34c0,-1876.7 1521.38,-3398.08 3398.08,-3398.08 755.35,0 1453.03,246.52 2017.25,663.4l1210.02 0c-776.01,-914.83 -1933.66,-1495.67 -3227.26,-1495.67 -2336.3,0 -4230.3,1894 -4230.3,4230.34 0,854.13 253.23,1649.11 688.59,2314.06l523.8 -751.02c-242.86,-467.93 -380.17,-999.42 -380.17,-1563.04z"/>
   <polygon class="fil5" points="4691.41,6551.6 930.21,6551.6 1853.97,5227.09 3948.38,5227.09 5052.16,3692.59 6765.73,3692.59 "/>
   <polygon class="fil6" points="3881.09,1697.93 7642.29,1697.93 6718.53,3022.44 4624.12,3022.44 3520.34,4556.94 1806.77,4556.94 "/>
  </g>
 </g>
</svg>
