<?xml version="1.0" encoding="UTF-8"?>
<!DOCTYPE svg PUBLIC "-//W3C//DTD SVG 1.1//EN" "http://www.w3.org/Graphics/SVG/1.1/DTD/svg11.dtd">
<!-- Creator: CorelDRAW -->
<svg xmlns="http://www.w3.org/2000/svg" xml:space="preserve" width="110.067mm" height="126.999mm" version="1.1" style="shape-rendering:geometricPrecision; text-rendering:geometricPrecision; image-rendering:optimizeQuality; fill-rule:evenodd; clip-rule:evenodd"
viewBox="0 0 11006.7 12699.9"
 xmlns:xlink="http://www.w3.org/1999/xlink"
 xmlns:xodm="http://www.corel.com/coreldraw/odm/2003"
 data-name="Layer 1">
 <defs>
  <style type="text/css">
   <![CDATA[
    .fil0 {fill:#000066;fill-rule:nonzero}
    .fil1 {fill:url(#id0);fill-rule:nonzero}
   ]]>
  </style>
  <linearGradient id="id0" gradientUnits="userSpaceOnUse" x1="75.75" y1="4224.16" x2="10930.96" y2="4224.16">
   <stop offset="0" style="stop-opacity:1; stop-color:#FB0001"/>
   <stop offset="1" style="stop-opacity:1; stop-color:#8C002E"/>
  </linearGradient>
 </defs>
 <g id="Layer_x0020_1">
  <metadata id="CorelCorpID_0Corel-Layer"/>
  <path class="fil0" d="M7493.47 8566.77l0 -1003.02c-451.92,-41.37 -830.32,-360.56 -947.3,-798.98l-138.22 137.5 0 940.79c0.56,499.38 405.25,904.06 904.59,904.62 99.92,0.01 180.94,-81.01 180.94,-180.92l-0.01 0.01z"/>
  <path class="fil1" d="M4057.97 6194.18c25.18,-12.62 53.01,-19.22 81.17,-19.22 47.99,0 94.1,19.1 128,53.04l331.63 331.63 0 -163.91c-0.02,-0.67 -0.02,-1.32 -0.02,-1.99 0,-499.51 405.09,-904.6 904.6,-904.6 498.74,0 903.62,403.87 904.61,902.61l163.73 -163.74c33.97,-34.35 80.33,-53.72 128.66,-53.72 99.9,0 180.92,81.01 180.92,180.92 0,9.01 -0.68,18.04 -2.01,26.95 -4.68,33.56 -7.15,67.49 -7.15,101.41 0,399.61 324.07,723.69 723.68,723.69 399.61,0 723.69,-324.08 723.69,-723.69 0,-399.6 -324.08,-723.67 -723.69,-723.67 -33.92,0 -67.85,2.47 -101.42,7.15 -8.9,1.33 -17.93,2.01 -26.94,2.01 -99.91,0 -180.93,-81.02 -180.93,-180.92 0,-48.33 19.37,-94.69 53.72,-128.67l1151.2 -1153 -810.88 -810.71c-180.14,377.17 -561.41,617.71 -979.53,617.71 -599.42,0 -1085.53,-486.11 -1085.53,-1085.52 0,-418.13 240.54,-799.4 617.71,-979.5l-813.06 -809.98 -1153 1151.2c-33.98,34.31 -80.34,53.67 -128.67,53.67 -99.9,0 -180.92,-81.02 -180.92,-180.92 0,-9.01 0.68,-18.04 2.01,-26.95 4.76,-33.7 7.23,-67.89 7.23,-101.91 0,-191.55 -76.07,-375.4 -211.25,-511.02 -137.85,-131.37 -321.24,-204.72 -511.68,-204.72 -190.45,0 -373.83,73.35 -511.66,204.66 -134.9,135.54 -210.79,319.31 -210.79,510.59 0,399.61 324.07,723.69 723.68,723.69 33.66,0 67.5,-2.39 100.81,-7.07 8.9,-1.33 17.94,-2.02 26.95,-2.02 99.9,0 180.92,81.02 180.92,180.92 0,48.33 -19.37,94.69 -53.72,128.67l-1151.38 1150.65 1151.56 1153.01c34.39,33.96 53.75,80.34 53.75,128.69 0,99.91 -81.02,180.93 -180.92,180.93 -9.08,0 -18.2,-0.71 -27.17,-2.05 -33.56,-4.68 -67.48,-7.15 -101.41,-7.15 -399.61,0 -723.68,324.08 -723.68,723.68 0,399.61 324.07,723.68 723.68,723.68 399.61,0 723.69,-324.07 723.69,-723.68 0,-33.93 -2.47,-67.85 -7.16,-101.43 -1.42,-9.22 -2.18,-18.65 -2.18,-28.02 0,-68.16 38.37,-130.6 99.15,-161.39l0 0.01zm-3460.09 1015.69c-99.89,-0.01 -180.91,-81.03 -180.91,-180.93 0,-64.63 34.5,-124.36 90.45,-156.68l940.79 -542.76c27.73,-16.25 59.33,-24.84 91.5,-24.84 99.9,0 180.92,81.02 180.92,180.92 0,65.04 -34.97,125.15 -91.51,157.29l-940.79 542.76c-27.34,15.86 -58.45,24.22 -90.07,24.22 -0.11,0 -0.26,0 -0.38,0l0 0.02zm939.88 -4703.93c-0.11,0 -0.27,0 -0.38,0 -31.61,0 -62.73,-8.37 -90.07,-24.24l-940.79 -542.76c-55.36,-32.45 -89.42,-91.89 -89.42,-156.08 0,-99.9 81.02,-180.92 180.92,-180.92 31.34,0 62.18,8.15 89.42,23.63l940.78 542.76c55.96,32.33 90.46,92.06 90.46,156.69 0,99.9 -81.02,180.92 -180.92,180.92zm-195.57 2080.58l-1085.53 0c-99.89,0 -180.91,-81.02 -180.91,-180.92 0,-99.9 81.02,-180.92 180.92,-180.92l1085.52 0c99.91,0 180.93,81.02 180.93,180.92 0,99.9 -81.02,180.92 -180.93,180.92zm9066.63 2623.35c-0.11,-0.02 -0.26,-0.02 -0.37,-0.02 -31.62,0 -62.73,-8.36 -90.07,-24.23l-940.79 -542.76c-56.54,-32.13 -91.51,-92.24 -91.51,-157.28 0,-99.9 81.02,-180.92 180.92,-180.92 32.17,0 63.77,8.59 91.51,24.84l940.79 542.76c55.94,32.32 90.44,92.05 90.44,156.68 0,99.9 -81.02,180.92 -180.92,180.92l0 0.01zm-939.88 -4703.93c-99.89,0 -180.91,-81.02 -180.91,-180.92 0,-64.63 34.5,-124.36 90.45,-156.67l940.78 -542.76c27.25,-15.5 58.08,-23.65 89.43,-23.65 99.9,0 180.92,81.02 180.92,180.92 0,64.19 -34.06,123.63 -89.41,156.07l-940.79 542.77c-27.35,15.87 -58.47,24.24 -90.08,24.24 -0.12,0 -0.27,0 -0.38,0l-0.01 0zm1281.1 2080.58l-1085.53 0c-99.9,0 -180.92,-81.02 -180.92,-180.92 0,-99.9 81.02,-180.92 180.92,-180.92l1085.53 0c99.9,0 180.92,81.02 180.92,180.92 0,99.9 -81.02,180.92 -180.92,180.92z"/>
  <path class="fil0" d="M6103.28 10942.43l180.93 -361.83c87.32,-175.84 133.1,-369.83 133.1,-566.3 0,-196.47 -45.78,-390.45 -133.15,-566.28l-66.22 -132.79c-112.46,-226.13 -171.63,-475.8 -171.83,-728.47l0 -2191.13c0,-299.61 -243.05,-542.66 -542.76,-542.66 -299.7,0 -542.75,243.05 -542.75,542.75l0 2532.88c0,99.9 -81.02,180.93 -180.93,180.93 -99.9,0 -180.92,-81.03 -180.92,-180.93l0 -1857.33 -306.48 -306.29c-126.59,473.86 -556.25,803.64 -1046.75,803.64 -0.27,0 -0.66,0 -0.93,0 -19.18,0 -37.81,-1.81 -56.8,-2.72l-442.54 1273.68c-34.03,72.79 -51.67,152.19 -51.67,232.52 0,92.21 23.34,183.14 67.6,263.95 3.21,5.81 6.15,11.9 8.65,18.08l634.86 1502.36c70.98,132.62 108.44,280.88 108.55,431.37l0 173.68 2532.87 -0.05 0 -276.45c0.07,-84.15 19.7,-167.3 57.18,-242.6l-0.01 -0.01z"/>
 </g>
</svg>
