<?xml version="1.0" encoding="UTF-8"?>
<!DOCTYPE svg PUBLIC "-//W3C//DTD SVG 1.1//EN" "http://www.w3.org/Graphics/SVG/1.1/DTD/svg11.dtd">
<!-- Creator: CorelDRAW -->
<svg xmlns="http://www.w3.org/2000/svg" xml:space="preserve" width="110.067mm" height="126.999mm" version="1.1" style="shape-rendering:geometricPrecision; text-rendering:geometricPrecision; image-rendering:optimizeQuality; fill-rule:evenodd; clip-rule:evenodd"
viewBox="0 0 11006.7 12699.9"
 xmlns:xlink="http://www.w3.org/1999/xlink"
 xmlns:xodm="http://www.corel.com/coreldraw/odm/2003"
 data-name="Layer 1">
 <defs>
  <style type="text/css">
   <![CDATA[
    .fil1 {fill:#000066}
    .fil0 {fill:url(#id0);fill-rule:nonzero}
   ]]>
  </style>
  <linearGradient id="id0" gradientUnits="userSpaceOnUse" x1="273.58" y1="5960.61" x2="10733.13" y2="5960.61">
   <stop offset="0" style="stop-opacity:1; stop-color:#FB0001"/>
   <stop offset="1" style="stop-opacity:1; stop-color:#8C002E"/>
  </linearGradient>
 </defs>
 <g id="Layer_x0020_1">
  <metadata id="CorelCorpID_0Corel-Layer"/>
  <path class="fil0" d="M2847.29 6085c-409.61,226.4 -792.95,506.71 -1139.96,837.73l0 -2488.27c0,-75.84 -61.45,-137.07 -137.07,-137.07l-303.15 0 1010.21 -1028.25 1010.2 1028.25 -303.16 0c-75.62,0 -137.07,61.22 -137.07,137.06l0 1650.55zm1929.03 -3479.28l0 2846.7c238.73,-31.3 482.26,-47.51 726.69,-47.51 242.62,0 482.26,15.76 718.25,46.37l0 -2845.56c0,-75.62 61.45,-137.07 137.07,-137.07l439.3 0 -1298.5 -1320.89 -1298.51 1320.89 438.4 0c75.62,0 137.3,61.45 137.3,137.07zm3513.78 5711.46c604.47,649.25 985.98,1509.14 1019.57,2456.28l1423.46 0c-34.5,-1339.17 -575.47,-2554.51 -1436.49,-3462.14l-1006.54 1005.86zm-2650.02 -1213.07l0 -1423.23c1339.4,34.49 2554.98,575.01 3462.61,1436.71l-1005.64 1005.86c-650.16,-604.94 -1510.28,-985.53 -2456.97,-1019.34zm-2924.37 1213.07l-1005.64 -1005.86c-861.94,907.63 -1401.99,2122.97 -1436.49,3462.14l1423.47 0c33.58,-947.14 414.18,-1807.26 1018.66,-2456.28zm2650.01 -1213.07l0 -1423.23c-1338.48,34.49 -2554.06,575.01 -3461.69,1436.71l1005.64 1005.86c649.25,-604.94 1509.36,-985.53 2456.06,-1019.34l-0.01 0zm2655.72 -2806.72c76.53,0 137.07,61.22 137.07,137.06l0 1650.78c410.53,226.39 793.86,506.7 1140.87,837.72l0 -2488.5c0,-75.84 61.46,-137.06 137.07,-137.06l303.15 0 -1010.2 -1028.25 -1011.12 1028.25 303.16 0z"/>
  <path class="fil1" d="M5503.01 7375.51c1903.9,0 3459.64,1512.11 3532.51,3397.95l-2597.92 0 1431.92 -2038.22c38.15,-54.6 31.76,-128.61 -14.85,-175.9 -47.52,-47.06 -121.31,-53.46 -176.37,-15.08l-2071.8 1456.13c-33.58,-3.88 -68.09,-5.94 -103.5,-5.94 -458.04,0 -838.64,338.56 -905.79,779.01l-2625.79 0c71.73,-1885.85 1628.61,-3397.95 3531.59,-3397.95zm642.63 3535.02c0,-354.09 -288.3,-641.94 -642.63,-641.94 -353.64,0 -641.71,287.85 -641.71,641.94 0,353.87 288.3,641.71 641.71,641.71 354.33,-0.22 642.63,-287.85 642.63,-641.71zm1048.36 -1690.75l-884.33 1257.61c-84.98,-158.32 -215.42,-288.53 -373.05,-373.97l1257.38 -883.64z"/>
 </g>
</svg>
