<?xml version="1.0" encoding="UTF-8"?>
<!DOCTYPE svg PUBLIC "-//W3C//DTD SVG 1.1//EN" "http://www.w3.org/Graphics/SVG/1.1/DTD/svg11.dtd">
<!-- Creator: CorelDRAW -->
<svg xmlns="http://www.w3.org/2000/svg" xml:space="preserve" width="110.067mm" height="126.999mm" version="1.1" style="shape-rendering:geometricPrecision; text-rendering:geometricPrecision; image-rendering:optimizeQuality; fill-rule:evenodd; clip-rule:evenodd"
viewBox="0 0 11006.7 12699.9"
 xmlns:xlink="http://www.w3.org/1999/xlink"
 xmlns:xodm="http://www.corel.com/coreldraw/odm/2003"
 data-name="Layer 1">
 <defs>
  <style type="text/css">
   <![CDATA[
    .fil2 {fill:#000066}
    .fil0 {fill:#96002A}
    .fil1 {fill:url(#id0);fill-rule:nonzero}
   ]]>
  </style>
  <linearGradient id="id0" gradientUnits="userSpaceOnUse" x1="230.16" y1="5161.72" x2="6878.82" y2="5161.72">
   <stop offset="0" style="stop-opacity:1; stop-color:#FB0001"/>
   <stop offset="1" style="stop-opacity:1; stop-color:#8C002E"/>
  </linearGradient>
 </defs>
 <g id="Layer_x0020_1">
  <metadata id="CorelCorpID_0Corel-Layer"/>
  <path class="fil0" d="M7131.7 5142.93l0 42.1c0.1,58.22 47.3,105.43 105.54,105.52l2290.48 0.01c60.1,293.38 318.41,504.25 618,504.25 348.34,0 630.83,-282.49 630.83,-630.83 0,-348.34 -282.49,-630.83 -630.83,-630.83 -299.59,0 -557.9,210.87 -617.97,504.29l-2290.52 -0.03c-58.23,0.09 -105.43,47.29 -105.52,105.53l-0.01 -0.01z"/>
  <path class="fil0" d="M9321.47 7502.79c-29.83,0 -59.74,2.19 -89.25,6.34l-333.22 -927.84c-48.61,-135.61 -128.92,-204.14 -238.94,-204.14l-1595.79 0.03c-0.52,0 -1.1,-0.02 -1.62,-0.02 -69.88,0 -126.56,56.68 -126.56,126.56 0,69.87 56.68,126.55 126.56,126.55 0.52,0 1.1,-0.02 1.6,-0.02l1580.85 0.01c6.38,11.61 11.75,23.89 15.88,36.48l333.22 928.02c-187.73,114.24 -302.47,318.47 -302.47,538.32 0,348.04 282.26,630.3 630.3,630.3 348.05,0 630.3,-282.26 630.3,-630.3 0,-348.05 -282.25,-630.3 -630.3,-630.3 -0.15,0 -0.38,0 -0.54,0l-0.02 0.01z"/>
  <path class="fil0" d="M8645.1 3697.74l-1580.83 0c-0.52,0 -1.1,-0.01 -1.62,-0.01 -69.88,0 -126.56,56.67 -126.56,126.55 0,69.88 56.68,126.56 126.56,126.56 0.52,0 1.1,-0.02 1.6,-0.02l1595.72 0.01c110.09,0 190.4,-68.77 238.94,-204.17l333.29 -928c29.43,4.26 59.33,6.51 89.15,6.51 0,0 0.15,0 0.15,0 0.21,0 0.59,0 0.83,0 348.77,0 631.61,-282.84 631.61,-631.61 0,-348.77 -282.84,-631.62 -631.61,-631.62 -348.77,0 -631.62,282.85 -631.62,631.62 0,220.53 115.13,425.18 303.51,539.7l-333.26 928.01c-4.26,12.56 -9.6,24.8 -15.91,36.46l0.05 0.01z"/>
  <path class="fil1" d="M6878.82 5611.56l0 -895.31 -527.62 -64.78c-51.43,-6.11 -93.95,-43.11 -107.1,-93.21 -53.61,-200.41 -133.88,-393.47 -238.03,-573 -11.06,-19.31 -16.9,-41.15 -16.9,-63.36 0,-28.26 9.46,-55.72 26.83,-77.99l327.29 -419.09 -632.73 -633.15 -419.44 327.32c-22.08,17.37 -49.41,26.83 -77.54,26.83 -22.22,0 -44.11,-5.94 -63.29,-17.15 -179.58,-103.86 -372.8,-184.29 -573.17,-237.53 -50.02,-13.24 -86.92,-55.58 -93.28,-106.88l-65.46 -527.71 -320.4 0 0 1320.75c827.48,65.56 1465.81,756.56 1465.81,1586.7 0,830.15 -638.33,1521.14 -1465.75,1586.63l0 1320.51 320.28 0.07 65.45 -527.7c6.37,-51.25 43.3,-93.52 93.21,-106.73 200.37,-53.14 393.88,-133.59 573.36,-237.49 19.08,-11.25 40.95,-17.19 63.2,-17.19 28.12,0 55.45,9.49 77.51,26.89l419.5 327.41 632.73 -633.16 -327.28 -419.1c-17.4,-22.32 -26.84,-49.83 -26.84,-78.13 0,-22.22 5.85,-44.11 16.92,-63.37 104.05,-179.67 184.64,-372.68 237.99,-573.15 13.18,-49.95 55.71,-86.88 107.13,-92.88l527.62 -64.99 0 -0.06zm-2907.78 891.51c-0.06,-0.01 -0.22,-0.01 -0.22,-0.01 -739.43,0 -1339.09,-599.65 -1339.09,-1339.08 0,-739.43 599.66,-1339.09 1339.09,-1339.09 739.43,0 1339.09,599.66 1339.09,1339.09 0,0 0,0 0,0 -0.82,739.05 -599.89,1338.11 -1338.91,1339.09l0.04 0zm-1793.02 2482.88l1667.12 0 0 -2235.25c-827.46,-65.56 -1465.8,-756.55 -1465.8,-1586.7 0,-830.14 638.34,-1521.14 1465.76,-1586.63l0 -2239.88c-2004.35,66.84 -3614.94,1718.28 -3614.94,3738.65 0.05,-0.14 0.05,0.32 0.05,0.32 0,1240.31 615.59,2401.16 1642.19,3096.67 190.75,125.42 305.67,338.6 305.67,566.86 0,3.39 -0.09,7.04 -0.09,10.35l0 235.57 0.04 0.04z"/>
  <path class="fil2" d="M6272.89 9724.79c-0.35,268.19 -217.75,485.59 -485.95,485.95l-3631.78 0c-1.02,0 -2.14,0 -3.15,0 -268.29,0 -485.87,-217.57 -485.87,-485.86 0,-268.29 217.58,-485.87 485.87,-485.87 1.01,0 2.13,0 3.14,0l3631.75 0.03c268.16,0.23 485.59,217.61 485.95,485.75l0.04 0z"/>
  <path class="fil2" d="M4826.92 11362.52l-1710.76 0c-502.53,-0.35 -915.83,-396.57 -937.26,-898.68l3584.21 -0.01c-20.94,501.92 -433.83,898.22 -936.16,898.68l-0.03 0.01z"/>
 </g>
</svg>
