<?xml version="1.0" encoding="UTF-8"?>
<!DOCTYPE svg PUBLIC "-//W3C//DTD SVG 1.1//EN" "http://www.w3.org/Graphics/SVG/1.1/DTD/svg11.dtd">
<!-- Creator: CorelDRAW -->
<svg xmlns="http://www.w3.org/2000/svg" xml:space="preserve" width="110.067mm" height="126.999mm" version="1.1" style="shape-rendering:geometricPrecision; text-rendering:geometricPrecision; image-rendering:optimizeQuality; fill-rule:evenodd; clip-rule:evenodd"
viewBox="0 0 11006.7 12699.9"
 xmlns:xlink="http://www.w3.org/1999/xlink"
 xmlns:xodm="http://www.corel.com/coreldraw/odm/2003"
 data-name="Layer 1">
 <defs>
  <style type="text/css">
   <![CDATA[
    .fil1 {fill:#000066;fill-rule:nonzero}
    .fil0 {fill:url(#id0);fill-rule:nonzero}
   ]]>
  </style>
  <linearGradient id="id0" gradientUnits="userSpaceOnUse" x1="239.39" y1="5742.69" x2="9147.62" y2="5742.69">
   <stop offset="0" style="stop-opacity:1; stop-color:#FB0001"/>
   <stop offset="1" style="stop-opacity:1; stop-color:#8C002E"/>
  </linearGradient>
 </defs>
 <g id="Layer_x0020_1">
  <metadata id="CorelCorpID_0Corel-Layer"/>
  <path class="fil0" d="M7123.04 276.24l-4859.05 0c-1117.98,0 -2024.6,906.62 -2024.6,2024.61l0 6883.67c0,1117.99 906.61,2024.61 2024.6,2024.61l4454.12 0 0 -1259.72c-500.08,-511.41 -809.84,-1209.9 -809.84,-1979.66 0,-1563 1271.85,-2834.45 2834.44,-2834.45 137.67,0 272.1,13.36 404.91,32.4l0 -2866.85c0,-1117.98 -906.61,-2024.61 -2024.6,-2024.61l0.02 0zm-2761.57 8908.27l-2097.48 0c-223.91,0 -404.91,-181.4 -404.91,-404.91 0,-223.52 181,-404.92 404.91,-404.92l2097.48 0c223.92,0 404.92,181.4 404.92,404.92 0,223.51 -181,404.91 -404.92,404.91zm97.19 -2024.6l-2194.67 0c-223.91,0 -404.91,-181.4 -404.91,-404.92 0,-223.51 181,-404.91 404.91,-404.91l2194.67 -0.01c223.91,0 404.91,181.4 404.91,404.92 0,223.51 -181,404.91 -404.91,404.91l0 0.01zm1226.9 -2024.61l-3421.57 0c-223.91,0 -404.91,-181.4 -404.91,-404.92 0,-223.51 181,-404.91 404.91,-404.91l3421.57 -0.01c223.92,0 404.92,181.4 404.92,404.91 0,223.52 -181,404.92 -404.92,404.92l0 0.01zm1437.48 -2024.61l-4859.05 0c-223.91,0 -404.91,-181.4 -404.91,-404.92 0,-223.51 181,-404.92 404.91,-404.92l4859.05 0c223.92,0 404.91,181.41 404.91,404.92 0,223.52 -180.99,404.92 -404.91,404.92z"/>
  <path class="fil1" d="M8742.72 10804.21c-435.29,0 -846.29,-101.23 -1214.77,-276.57l0 1490.52c0,323.53 360.39,516.27 629.65,336.89l585.12 -390.34 585.11 390.34c269.27,179.38 629.65,-13.36 629.65,-336.89l0 -1490.52c-368.48,175.33 -779.48,276.57 -1214.76,276.57z"/>
  <ellipse class="fil1" cx="8742.72" cy="7969.75" rx="2024.59" ry="2024.6"/>
 </g>
</svg>
